<?xml version="1.0" standalone="no"?>
<!DOCTYPE svg PUBLIC "-//W3C//DTD SVG 20010904//EN"
 "http://www.w3.org/TR/2001/REC-SVG-20010904/DTD/svg10.dtd">
<svg version="1.0" xmlns="http://www.w3.org/2000/svg"
 width="700.000000pt" height="700.000000pt" viewBox="0 0 700.000000 700.000000"
 preserveAspectRatio="xMidYMid meet">
<metadata>
Created by potrace 1.14, written by Peter Selinger 2001-2017
</metadata>
<g transform="translate(0.000000,700.000000) scale(0.100000,-0.100000)"
fill="#000000" stroke="none">
<path d="M1082 5708 c-196 -29 -360 -191 -397 -393 -3 -16 -5 -824 -5 -1795
-1 -1572 1 -1772 15 -1824 45 -170 197 -315 364 -346 60 -11 4822 -15 4882 -4
18 4 67 22 107 40 127 58 227 179 264 321 10 38 13 430 13 1823 l0 1775 -22
71 c-47 150 -155 259 -311 316 l-57 21 -2400 1 c-1320 1 -2424 -2 -2453 -6z"/>
</g>
</svg>
